<?xml version="1.0" encoding="UTF-8" standalone="no"?>
<svg
   xmlns:dc="http://purl.org/dc/elements/1.1/"
   xmlns:cc="http://creativecommons.org/ns#"
   xmlns:rdf="http://www.w3.org/1999/02/22-rdf-syntax-ns#"
   xmlns:svg="http://www.w3.org/2000/svg"
   xmlns="http://www.w3.org/2000/svg"
   id="svg844"
   version="1.1"
   viewBox="0 0 463.99883 110.50939"
   height="417.67331"
   width="1753.6964">
  <defs
     id="defs838" />
  <metadata
     id="metadata841">
    <rdf:RDF>
      <cc:Work
         rdf:about="">
        <dc:format>image/svg+xml</dc:format>
        <dc:type
           rdf:resource="http://purl.org/dc/dcmitype/StillImage" />
        <dc:title></dc:title>
      </cc:Work>
    </rdf:RDF>
  </metadata>
  <g
     transform="translate(1.9932586,-188.87989)"
     id="layer1">
    <path
       id="path4180-2-9"
       d="M 58.964294,233.53779 78.833783,244.02524 58.847482,254.5127 38.977993,265.10951 V 244.02524 223.15967 Z"
       style="color:#000000;clip-rule:nonzero;display:inline;overflow:visible;visibility:visible;opacity:1;isolation:auto;mix-blend-mode:normal;color-interpolation:sRGB;color-interpolation-filters:linearRGB;solid-color:#000000;solid-opacity:1;fill:#003a40;fill-opacity:1;fill-rule:evenodd;stroke:none;stroke-width:4.71317911;stroke-linecap:round;stroke-linejoin:round;stroke-miterlimit:4;stroke-dasharray:none;stroke-dashoffset:0;stroke-opacity:1;color-rendering:auto;image-rendering:auto;shape-rendering:auto;text-rendering:auto;enable-background:accumulate" />
    <path
       style="fill:#4db05b;fill-opacity:1;stroke-width:0.28222224"
       class="st0"
       d="m 50.637434,212.68971 v -10.58199 -10.582 l -6.62449,11.52835 C 26.032143,207.0976 12.439022,222.58345 11.234582,241.51059 H 21.816561 C 23.10705,226.19681 35.32366,213.9802 50.637434,212.68971"
       id="path7-2" />
    <path
       style="fill:#003a40;fill-opacity:1;stroke-width:0.28222224"
       class="st1"
       d="M 21.816561,246.75857 H 11.234582 0.65257473 l 11.52835427,6.6245 c 4.043511,17.98079 19.529355,31.57392 38.456505,32.77838 V 275.66548 C 35.32366,274.375 23.10705,262.15838 21.816561,246.75857"
       id="path9-7" />
    <path
       style="fill:#003a40;fill-opacity:1;stroke-width:0.28222224"
       class="st1"
       d="M 84.792335,241.51059 H 95.288292 105.8703 l -11.528355,-6.6245 C 90.298406,216.9053 74.812562,203.31217 55.885412,202.10772 v 10.58199 c 15.399823,1.29049 27.616433,13.5071 28.906923,28.82088"
       id="path11-0" />
    <path
       style="fill:#4db05b;fill-opacity:1;stroke-width:0.28222224"
       class="st0"
       d="m 55.885412,275.66548 v 10.49597 10.582 l 6.624518,-11.52836 c 17.980774,-4.04353 31.573923,-19.52937 32.778362,-38.45652 H 84.792335 c -1.29049,15.39981 -13.5071,27.61643 -28.906923,28.90691"
       id="path13-9" />
    <path
       d="m 137.68924,270.40907 q -5.08,0 -9.38388,-2.46944 -4.30389,-2.54 -6.84389,-6.77333 -2.46945,-4.30389 -2.46945,-9.38389 v -15.02834 q 0,-5.08 2.46945,-9.31333 2.54,-4.30389 6.84389,-6.77333 4.30388,-2.54 9.38388,-2.54 5.08001,0 9.38389,2.54 4.30389,2.46944 6.77334,6.77333 2.54,4.23333 2.54,9.31333 v 15.02834 q 0,5.08 -2.54,9.38389 -2.46945,4.23333 -6.77334,6.77333 -4.30388,2.46944 -9.38389,2.46944 z m 0,-8.255 q 2.68112,0 5.00945,-1.41111 2.32833,-1.41111 3.66889,-3.81 1.41111,-2.39889 1.41111,-5.15055 v -15.02834 q 0,-2.75166 -1.41111,-5.15055 -1.34056,-2.39889 -3.66889,-3.81 -2.32833,-1.41111 -5.00945,-1.41111 -2.68111,0 -5.00944,1.41111 -2.32833,1.41111 -3.73944,3.81 -1.34056,2.39889 -1.34056,5.15055 v 15.02834 q 0,2.75166 1.34056,5.15055 1.41111,2.39889 3.73944,3.81 2.32833,1.41111 5.00944,1.41111 z"
       style="font-style:normal;font-variant:normal;font-weight:bold;font-stretch:normal;font-size:70.55555725px;line-height:125%;font-family:'Miriam Libre';-inkscape-font-specification:'Miriam Libre, Bold';font-variant-ligatures:normal;font-variant-caps:normal;font-variant-numeric:normal;font-feature-settings:normal;text-align:start;letter-spacing:-0.5291667px;word-spacing:0px;writing-mode:lr-tb;text-anchor:start;fill:#4db05b;fill-opacity:1;stroke:none;stroke-width:0.26458332px;stroke-linecap:butt;stroke-linejoin:miter;stroke-opacity:1"
       id="path821" />
    <path
       d="m 178.25428,270.33852 q -3.81,0 -7.54944,-1.19945 -3.66889,-1.27 -6.84389,-3.45722 -0.35278,-0.21166 -0.49389,-0.70555 -0.14111,-0.56445 0.0705,-0.98778 l 2.46945,-4.445 q 0.42333,-0.84667 1.34055,-0.84667 0.56445,0 1.05834,0.28222 5.29166,3.31611 9.87778,3.31611 3.73944,0 5.85611,-1.76388 2.18722,-1.83445 2.18722,-4.72723 0,-1.905 -1.05833,-3.175 -1.05834,-1.34055 -2.82223,-2.25777 -1.76389,-0.91723 -5.15055,-2.25778 l -2.04611,-0.84667 q -4.79778,-2.04611 -8.11389,-5.22111 -3.24556,-3.175 -3.24556,-9.31333 0,-4.30389 1.905,-7.62 1.97556,-3.31611 5.43278,-5.15056 3.45722,-1.83444 7.97278,-1.83444 3.73944,0 7.40833,1.27 3.73945,1.19944 6.70278,3.38666 0.35278,0.21167 0.49389,0.77611 0.14111,0.49389 -0.0706,0.91723 l -2.32833,4.445 q -0.42333,0.84666 -1.34056,0.84666 -0.56444,0 -1.05833,-0.28222 -2.75167,-1.76389 -5.29167,-2.54 -2.46944,-0.77611 -4.445,-0.77611 -3.175,0 -5.00944,1.76389 -1.83445,1.69333 -1.83445,4.37444 0,2.75167 1.97556,4.58611 2.04611,1.76389 6.49111,3.59834 0.635,0.21166 4.79778,1.97555 4.23333,1.69334 6.70278,5.00945 2.46944,3.31611 2.46944,7.83166 0,4.37445 -2.11667,7.83167 -2.04611,3.38667 -5.78555,5.29167 -3.73945,1.905 -8.60778,1.905 z"
       style="font-style:normal;font-variant:normal;font-weight:bold;font-stretch:normal;font-size:70.55555725px;line-height:125%;font-family:'Miriam Libre';-inkscape-font-specification:'Miriam Libre, Bold';font-variant-ligatures:normal;font-variant-caps:normal;font-variant-numeric:normal;font-feature-settings:normal;text-align:start;letter-spacing:-0.5291667px;word-spacing:0px;writing-mode:lr-tb;text-anchor:start;fill:#4db05b;fill-opacity:1;stroke:none;stroke-width:0.26458332px;stroke-linecap:butt;stroke-linejoin:miter;stroke-opacity:1"
       id="path823" />
    <path
       d="m 220.8963,270.40907 q -5.08,0 -9.38389,-2.46944 -4.23333,-2.54 -6.77333,-6.77333 -2.46945,-4.30389 -2.46945,-9.38389 v -15.02834 q 0,-5.08 2.46945,-9.31333 2.54,-4.30389 6.77333,-6.77333 4.30389,-2.54 9.38389,-2.54 4.445,0 8.255,1.62277 3.81,1.55223 6.49111,4.58612 0.42333,0.49388 0.42333,1.19944 0,0.70556 -0.56444,1.41111 l -3.10444,3.24556 q -0.56445,0.56444 -1.12889,0.56444 -0.70556,0 -1.27,-0.635 -3.52778,-3.73944 -9.03111,-3.73944 -2.68112,0 -5.00945,1.41111 -2.32833,1.41111 -3.73944,3.81 -1.34056,2.39889 -1.34056,5.15055 v 15.02834 q 0,2.75166 1.34056,5.15055 1.41111,2.39889 3.73944,3.81 2.32833,1.41111 5.00945,1.41111 2.68111,0 5.00944,-1.34055 2.32833,-1.34056 3.66889,-3.66889 1.34055,-2.32833 1.34055,-5.08 v -3.45722 h -9.45444 q -0.635,0 -1.05833,-0.42334 -0.42334,-0.42333 -0.42334,-1.05833 v -5.08 q 0,-0.635 0.42334,-1.05833 0.42333,-0.42334 1.05833,-0.42334 h 14.88722 q 1.27,0 2.11667,0.91723 0.91722,0.84666 0.91722,2.11666 v 8.18445 q 0,5.08 -2.54,9.38389 -2.46944,4.23333 -6.77333,6.77333 -4.23334,2.46944 -9.24278,2.46944 z"
       style="font-style:normal;font-variant:normal;font-weight:bold;font-stretch:normal;font-size:70.55555725px;line-height:125%;font-family:'Miriam Libre';-inkscape-font-specification:'Miriam Libre, Bold';font-variant-ligatures:normal;font-variant-caps:normal;font-variant-numeric:normal;font-feature-settings:normal;text-align:start;letter-spacing:-0.5291667px;word-spacing:0px;writing-mode:lr-tb;text-anchor:start;fill:#003a40;fill-opacity:1;stroke:none;stroke-width:0.26458332px;stroke-linecap:butt;stroke-linejoin:miter;stroke-opacity:1"
       id="path825" />
    <path
       d="m 264.27694,269.49185 q -4.58611,0 -8.46667,-2.25778 -3.81,-2.25777 -6.06777,-6.13833 -2.25778,-3.88056 -2.25778,-8.46667 v -7.62 q 0,-4.58611 2.25778,-8.46666 2.25777,-3.88056 6.06777,-6.13834 3.88056,-2.25777 8.46667,-2.25777 4.58611,0 8.39611,2.25777 3.88056,2.25778 6.13834,6.13834 2.25777,3.88055 2.25777,8.46666 v 4.72723 q 0,1.27 -0.91722,2.18722 -0.84667,0.84666 -2.11667,0.84666 h -22.08389 v 0.35278 q 0,3.45722 2.39889,5.92667 2.46945,2.39889 5.92667,2.39889 h 11.21833 q 0.635,0 1.05834,0.42333 0.42333,0.42333 0.42333,1.05833 v 5.08001 q 0,0.635 -0.42333,1.05833 -0.42334,0.42333 -1.05834,0.42333 z m 8.32556,-24.34167 v -0.635 q 0,-3.45722 -2.46945,-5.85611 -2.39889,-2.46944 -5.85611,-2.46944 -3.45722,0 -5.92667,2.46944 -2.39889,2.39889 -2.39889,5.85611 v 0.635 z"
       style="font-style:normal;font-variant:normal;font-weight:bold;font-stretch:normal;font-size:70.55555725px;line-height:125%;font-family:'Miriam Libre';-inkscape-font-specification:'Miriam Libre, Bold';font-variant-ligatures:normal;font-variant-caps:normal;font-variant-numeric:normal;font-feature-settings:normal;text-align:start;letter-spacing:-0.5291667px;word-spacing:0px;writing-mode:lr-tb;text-anchor:start;fill:#003a40;fill-opacity:1;stroke:none;stroke-width:0.26458332px;stroke-linecap:butt;stroke-linejoin:miter;stroke-opacity:1"
       id="path827" />
    <path
       d="m 305.50233,270.40907 q -4.58611,0 -8.46667,-2.18722 -3.81,-2.25778 -6.06778,-6.06778 -2.25777,-3.81 -2.25777,-8.255 v -9.24277 q 0,-4.445 2.25777,-8.255 2.25778,-3.81 6.06778,-5.99723 3.88056,-2.25777 8.46667,-2.25777 4.58611,0 8.39611,2.25777 3.88055,2.18723 6.13833,5.99723 2.25778,3.81 2.25778,8.255 v 9.24277 q 0,4.445 -2.25778,8.255 -2.25778,3.81 -6.13833,6.06778 -3.81,2.18722 -8.39611,2.18722 z m 0,-8.18444 q 3.45722,0 5.85611,-2.39889 2.46944,-2.46944 2.46944,-5.92667 v -9.24277 q 0,-3.45723 -2.46944,-5.85612 -2.39889,-2.46944 -5.85611,-2.46944 -3.45722,0 -5.92667,2.46944 -2.39889,2.39889 -2.39889,5.85612 v 9.24277 q 0,3.45723 2.39889,5.92667 2.46945,2.39889 5.92667,2.39889 z"
       style="font-style:normal;font-variant:normal;font-weight:bold;font-stretch:normal;font-size:70.55555725px;line-height:125%;font-family:'Miriam Libre';-inkscape-font-specification:'Miriam Libre, Bold';font-variant-ligatures:normal;font-variant-caps:normal;font-variant-numeric:normal;font-feature-settings:normal;text-align:start;letter-spacing:-0.5291667px;word-spacing:0px;writing-mode:lr-tb;text-anchor:start;fill:#003a40;fill-opacity:1;stroke:none;stroke-width:0.26458332px;stroke-linecap:butt;stroke-linejoin:miter;stroke-opacity:1"
       id="path829" />
    <path
       d="m 334.45106,269.49185 q -1.27,0 -2.18722,-0.84666 -0.84667,-0.91723 -0.84667,-2.18723 V 220.5263 q 0,-0.635 0.42334,-1.05834 0.42333,-0.42333 1.05833,-0.42333 h 5.64445 q 0.635,0 1.05833,0.42333 0.42333,0.42334 0.42333,1.05834 v 40.71055 h 16.36889 q 0.635,0 1.05834,0.42333 0.42333,0.42334 0.42333,1.05834 v 5.29167 q 0,0.635 -0.42333,1.05833 -0.42334,0.42333 -1.05834,0.42333 z"
       style="font-style:normal;font-variant:normal;font-weight:bold;font-stretch:normal;font-size:70.55555725px;line-height:125%;font-family:'Miriam Libre';-inkscape-font-specification:'Miriam Libre, Bold';font-variant-ligatures:normal;font-variant-caps:normal;font-variant-numeric:normal;font-feature-settings:normal;text-align:start;letter-spacing:-0.5291667px;word-spacing:0px;writing-mode:lr-tb;text-anchor:start;fill:#4db05b;fill-opacity:1;stroke:none;stroke-width:0.26458332px;stroke-linecap:butt;stroke-linejoin:miter;stroke-opacity:1"
       id="path831" />
    <path
       d="m 368.93289,224.3363 q -0.635,0 -1.05834,-0.42334 -0.42333,-0.42333 -0.42333,-1.05833 v -7.69056 q 0,-0.635 0.42333,-1.05833 0.42334,-0.42333 1.05834,-0.42333 h 4.79777 q 0.635,0 1.05834,0.42333 0.42333,0.42333 0.42333,1.05833 v 7.69056 q 0,0.635 -0.42333,1.05833 -0.42334,0.42334 -1.05834,0.42334 z m 1.69333,45.15555 q -1.48167,0 -2.54,-0.98778 -0.98778,-1.05833 -0.98778,-2.54 v -28.85722 h -5.715 q -0.635,0 -1.05833,-0.42333 -0.42334,-0.42334 -0.42334,-1.05834 v -5.08 q 0,-0.635 0.42334,-1.05833 0.42333,-0.42333 1.05833,-0.42333 h 10.65389 q 1.48167,0 2.46944,1.05833 1.05834,0.98778 1.05834,2.46945 v 28.85722 h 5.715 q 0.635,0 1.05833,0.42333 0.42333,0.42333 0.42333,1.05833 v 5.08001 q 0,0.635 -0.42333,1.05833 -0.42333,0.42333 -1.05833,0.42333 z"
       style="font-style:normal;font-variant:normal;font-weight:bold;font-stretch:normal;font-size:70.55555725px;line-height:125%;font-family:'Miriam Libre';-inkscape-font-specification:'Miriam Libre, Bold';font-variant-ligatures:normal;font-variant-caps:normal;font-variant-numeric:normal;font-feature-settings:normal;text-align:start;letter-spacing:-0.5291667px;word-spacing:0px;writing-mode:lr-tb;text-anchor:start;fill:#4db05b;fill-opacity:1;stroke:none;stroke-width:0.26458332px;stroke-linecap:butt;stroke-linejoin:miter;stroke-opacity:1"
       id="path833" />
    <path
       d="m 400.07984,269.91519 q -1.62278,0 -2.18722,-1.48167 L 384.83984,231.3213 q -0.14111,-0.42334 -0.14111,-0.635 0,-0.70556 0.49389,-1.12889 0.49389,-0.49389 1.27,-0.49389 h 4.93889 q 0.70555,0 1.27,0.42333 0.635,0.42333 0.84666,1.12889 l 9.525,28.36333 9.525,-28.36333 q 0.21167,-0.70556 0.77612,-1.12889 0.635,-0.42333 1.34055,-0.42333 h 4.58611 q 0.77611,0 1.27,0.49389 0.49389,0.42333 0.49389,1.12889 0,0.21166 -0.14111,0.635 l -13.05278,37.11222 q -0.28222,0.70555 -0.91722,1.12889 -0.56444,0.42333 -1.27,0.42333 z"
       style="font-style:normal;font-variant:normal;font-weight:bold;font-stretch:normal;font-size:70.55555725px;line-height:125%;font-family:'Miriam Libre';-inkscape-font-specification:'Miriam Libre, Bold';font-variant-ligatures:normal;font-variant-caps:normal;font-variant-numeric:normal;font-feature-settings:normal;text-align:start;letter-spacing:-0.5291667px;word-spacing:0px;writing-mode:lr-tb;text-anchor:start;fill:#4db05b;fill-opacity:1;stroke:none;stroke-width:0.26458332px;stroke-linecap:butt;stroke-linejoin:miter;stroke-opacity:1"
       id="path835" />
    <path
       d="m 442.56751,269.49185 q -4.58611,0 -8.46666,-2.25778 -3.81,-2.25777 -6.06778,-6.13833 -2.25778,-3.88056 -2.25778,-8.46667 v -7.62 q 0,-4.58611 2.25778,-8.46666 2.25778,-3.88056 6.06778,-6.13834 3.88055,-2.25777 8.46666,-2.25777 4.58611,0 8.39611,2.25777 3.88056,2.25778 6.13834,6.13834 2.25778,3.88055 2.25778,8.46666 v 4.72723 q 0,1.27 -0.91723,2.18722 -0.84666,0.84666 -2.11666,0.84666 h -22.08389 v 0.35278 q 0,3.45722 2.39889,5.92667 2.46944,2.39889 5.92666,2.39889 h 11.21834 q 0.635,0 1.05833,0.42333 0.42333,0.42333 0.42333,1.05833 v 5.08001 q 0,0.635 -0.42333,1.05833 -0.42333,0.42333 -1.05833,0.42333 z m 8.32556,-24.34167 v -0.635 q 0,-3.45722 -2.46945,-5.85611 -2.39888,-2.46944 -5.85611,-2.46944 -3.45722,0 -5.92666,2.46944 -2.39889,2.39889 -2.39889,5.85611 v 0.635 z"
       style="font-style:normal;font-variant:normal;font-weight:bold;font-stretch:normal;font-size:70.55555725px;line-height:125%;font-family:'Miriam Libre';-inkscape-font-specification:'Miriam Libre, Bold';font-variant-ligatures:normal;font-variant-caps:normal;font-variant-numeric:normal;font-feature-settings:normal;text-align:start;letter-spacing:-0.5291667px;word-spacing:0px;writing-mode:lr-tb;text-anchor:start;fill:#4db05b;fill-opacity:1;stroke:none;stroke-width:0.26458332px;stroke-linecap:butt;stroke-linejoin:miter;stroke-opacity:1"
       id="path837" />
  </g>
</svg>
