<?xml version="1.0" encoding="UTF-8"?>
<svg width="593px" height="228px" viewBox="0 0 593 228" version="1.1" xmlns="http://www.w3.org/2000/svg" xmlns:xlink="http://www.w3.org/1999/xlink">
    <!-- Generator: Sketch 44.1 (41455) - http://www.bohemiancoding.com/sketch -->
    <title>OSGeo_live</title>
    <desc>Created with Sketch.</desc>
    <defs></defs>
    <g id="Page-1" stroke="none" stroke-width="1" fill="none" fill-rule="evenodd">
        <g id="OSGeo_live">
            <path d="M210.2333,199.8621 C209.827298,199.456098 209.6243,198.963103 209.6243,198.3831 L209.6243,160.9731 C209.6243,160.741099 209.701633,160.547767 209.8563,160.3931 C210.010967,160.238433 210.204299,160.1611 210.4363,160.1611 L213.5683,160.1611 C213.800301,160.1611 213.993633,160.238433 214.1483,160.3931 C214.302967,160.547767 214.3803,160.741099 214.3803,160.9731 L214.3803,196.0051 L229.0543,196.0051 C229.286301,196.0051 229.479633,196.082433 229.6343,196.2371 C229.788967,196.391767 229.8663,196.585099 229.8663,196.8171 L229.8663,199.6591 C229.8663,199.891101 229.788967,200.084433 229.6343,200.2391 C229.479633,200.393767 229.286301,200.4711 229.0543,200.4711 L211.7123,200.4711 C211.132297,200.4711 210.639302,200.268102 210.2333,199.8621 Z M239.6103,162.8871 C239.455633,162.732433 239.3783,162.539101 239.3783,162.3071 L239.3783,157.2611 C239.3783,157.029099 239.455633,156.835767 239.6103,156.6811 C239.764967,156.526433 239.958299,156.4491 240.1903,156.4491 L242.9743,156.4491 C243.206301,156.4491 243.399633,156.526433 243.5543,156.6811 C243.708967,156.835767 243.7863,157.029099 243.7863,157.2611 L243.7863,162.3071 C243.7863,162.539101 243.708967,162.732433 243.5543,162.8871 C243.399633,163.041767 243.206301,163.1191 242.9743,163.1191 L240.1903,163.1191 C239.958299,163.1191 239.764967,163.041767 239.6103,162.8871 Z M239.9293,199.8621 C239.523298,199.456098 239.3203,198.963103 239.3203,198.3831 L239.3203,171.9351 L233.2883,171.9351 C233.056299,171.9351 232.862967,171.857767 232.7083,171.7031 C232.553633,171.548433 232.4763,171.355101 232.4763,171.1231 L232.4763,168.4551 C232.4763,168.223099 232.553633,168.029767 232.7083,167.8751 C232.862967,167.720433 233.056299,167.6431 233.2883,167.6431 L241.7563,167.6431 C242.336303,167.6431 242.829298,167.846098 243.2353,168.2521 C243.641302,168.658102 243.8443,169.151097 243.8443,169.7311 L243.8443,196.1791 L249.8183,196.1791 C250.050301,196.1791 250.243633,196.256433 250.3983,196.4111 C250.552967,196.565767 250.6303,196.759099 250.6303,196.9911 L250.6303,199.6591 C250.6303,199.891101 250.552967,200.084433 250.3983,200.2391 C250.243633,200.393767 250.050301,200.4711 249.8183,200.4711 L241.4083,200.4711 C240.828297,200.4711 240.335302,200.268102 239.9293,199.8621 Z M264.3473,200.2681 C264.134632,200.132766 263.989634,199.949101 263.9123,199.7171 L253.0083,168.9191 C252.969633,168.841766 252.9503,168.706434 252.9503,168.5131 C252.9503,168.281099 253.037299,168.078101 253.2113,167.9041 C253.385301,167.730099 253.607632,167.6431 253.8783,167.6431 L256.5463,167.6431 C256.778301,167.6431 257.000632,167.710766 257.2133,167.8461 C257.425968,167.981434 257.570966,168.165099 257.6483,168.3971 L266.8123,194.8451 L275.8023,168.3971 C275.879634,168.165099 276.024632,167.981434 276.2373,167.8461 C276.449968,167.710766 276.672299,167.6431 276.9043,167.6431 L279.4563,167.6431 C279.804302,167.6431 280.065299,167.768765 280.2393,168.0201 C280.413301,168.271435 280.442301,168.571098 280.3263,168.9191 L269.4223,199.7171 C269.344966,199.949101 269.199968,200.132766 268.9873,200.2681 C268.774632,200.403434 268.552301,200.4711 268.3203,200.4711 L265.0143,200.4711 C264.782299,200.4711 264.559968,200.403434 264.3473,200.2681 Z M291.5783,198.7891 C289.644957,197.667761 288.117639,196.130776 286.9963,194.1781 C285.874961,192.225424 285.3143,190.108445 285.3143,187.8271 L285.3143,179.5331 C285.3143,177.251755 285.874961,175.134776 286.9963,173.1821 C288.117639,171.229424 289.644957,169.692439 291.5783,168.5711 C293.511643,167.449761 295.618955,166.8891 297.9003,166.8891 C300.181645,166.8891 302.288957,167.449761 304.2223,168.5711 C306.155643,169.692439 307.682961,171.229424 308.8043,173.1821 C309.925639,175.134776 310.4863,177.251755 310.4863,179.5331 L310.4863,183.4771 C310.4863,184.057103 310.283302,184.550098 309.8773,184.9561 C309.471298,185.362102 308.978303,185.5651 308.3983,185.5651 L289.8383,185.5651 L289.8383,188.1171 C289.8383,189.586441 290.195963,190.93976 290.9113,192.1771 C291.626637,193.41444 292.60296,194.390763 293.8403,195.1061 C295.07764,195.821437 296.430959,196.1791 297.9003,196.1791 L306.3103,196.1791 C306.542301,196.1791 306.735633,196.256433 306.8903,196.4111 C307.044967,196.565767 307.1223,196.759099 307.1223,196.9911 L307.1223,199.6591 C307.1223,199.891101 307.044967,200.084433 306.8903,200.2391 C306.735633,200.393767 306.542301,200.4711 306.3103,200.4711 L297.9003,200.4711 C295.618955,200.4711 293.511643,199.910439 291.5783,198.7891 Z M305.9623,181.3891 L305.9623,179.2431 C305.9623,177.773759 305.604637,176.42044 304.8893,175.1831 C304.173963,173.94576 303.19764,172.969437 301.9603,172.2541 C300.72296,171.538763 299.369641,171.1811 297.9003,171.1811 C296.430959,171.1811 295.07764,171.538763 293.8403,172.2541 C292.60296,172.969437 291.626637,173.94576 290.9113,175.1831 C290.195963,176.42044 289.8383,177.773759 289.8383,179.2431 L289.8383,181.3891 L305.9623,181.3891 Z" id="Live" fill="#0B3A42"></path>
            <g id="Group" transform="translate(7.000000, 7.000000)">
                <path d="M218.7,131.7 C213.7,128.8 209.7,124.8 206.8,119.8 C203.9,114.8 202.4,109.3 202.4,103.3 L202.4,76.8 C202.4,70.8 203.9,65.3 206.8,60.3 C209.7,55.3 213.7,51.3 218.7,48.4 C223.7,45.5 229.2,44 235.1,44 C241,44 246.5,45.5 251.5,48.4 C256.5,51.3 260.5,55.3 263.4,60.3 C266.3,65.3 267.8,70.8 267.8,76.8 L267.8,103.3 C267.8,109.3 266.3,114.8 263.4,119.8 C260.5,124.8 256.5,128.8 251.5,131.7 C246.5,134.6 241,136.1 235.1,136.1 C229.2,136.1 223.7,134.6 218.7,131.7 M243.9,119.1 C246.6,117.4 248.8,115.2 250.4,112.4 C252,109.6 252.8,106.6 252.8,103.3 L252.8,76.8 C252.8,73.6 252,70.5 250.4,67.7 C248.8,64.9 246.6,62.6 243.9,61 C241.2,59.4 238.3,58.5 235.1,58.5 C232,58.5 229,59.3 226.3,61 C223.6,62.7 221.4,64.9 219.8,67.7 C218.2,70.5 217.4,73.5 217.4,76.8 L217.4,103.3 C217.4,106.5 218.2,109.6 219.8,112.4 C221.4,115.2 223.6,117.5 226.3,119.1 C229,120.8 231.9,121.6 235.1,121.6 C238.2,121.5 241.2,120.7 243.9,119.1" id="Shape" fill="#4DB05B" fill-rule="nonzero"></path>
                <path d="M291.8,133.8 C287.5,132.4 283.5,130.3 279.8,127.8 C279.4,127.6 279.1,127.1 278.9,126.5 C278.7,125.9 278.8,125.3 279,124.8 L283.3,117 C283.8,116 284.6,115.5 285.6,115.5 C286.3,115.5 286.9,115.7 287.5,116 C293.7,119.9 299.4,121.8 304.8,121.8 C309.2,121.8 312.6,120.7 315.1,118.6 C317.6,116.5 318.9,113.7 318.9,110.3 C318.9,108.1 318.3,106.2 317,104.6 C315.8,103.1 314.1,101.8 312.1,100.7 C310,99.6 307,98.3 303.1,96.7 L299.5,95.2 C293.9,92.8 289.2,89.7 285.4,86 C281.6,82.3 279.6,76.8 279.6,69.6 C279.6,64.5 280.7,60.1 283,56.2 C285.3,52.3 288.4,49.3 292.5,47.1 C296.5,44.9 301.2,43.9 306.5,43.9 C310.9,43.9 315.2,44.6 319.5,46.1 C323.8,47.6 327.7,49.6 331.2,52.1 C331.6,52.3 331.9,52.8 332.1,53.4 C332.3,54 332.2,54.6 332,55.1 L327.9,62.9 C327.4,63.9 326.6,64.4 325.5,64.4 C324.8,64.4 324.2,64.2 323.6,63.9 C320.4,61.8 317.3,60.3 314.4,59.4 C311.5,58.5 308.9,58 306.6,58 C302.9,58 300,59 297.8,61 C295.7,63 294.6,65.6 294.6,68.8 C294.6,72 295.8,74.7 298.1,76.8 C300.5,78.9 304.2,81 309.4,83.2 C310.1,83.4 313,84.6 317.9,86.6 C322.8,88.6 326.7,91.6 329.6,95.5 C332.5,99.4 333.9,104 333.9,109.3 C333.9,114.4 332.7,119 330.3,123 C327.9,127 324.5,130.1 320.1,132.4 C315.7,134.7 310.7,135.8 305,135.8 C300.5,136 296.1,135.2 291.8,133.8" id="Shape" fill="#4DB05B" fill-rule="nonzero"></path>
                <path d="M361.8,131.7 C356.8,128.8 352.9,124.8 349.9,119.8 C347,114.8 345.5,109.3 345.5,103.3 L345.5,76.8 C345.5,70.8 347,65.3 349.9,60.3 C352.8,55.3 356.8,51.3 361.8,48.4 C366.8,45.5 372.2,44 378.2,44 C383.4,44 388.2,44.9 392.7,46.8 C397.1,48.7 400.9,51.4 404.1,54.9 C404.6,55.5 404.8,56.2 404.8,57 C404.8,57.8 404.5,58.7 403.8,59.5 L398.4,65.2 C397.7,65.9 397.1,66.2 396.4,66.2 C395.6,66.2 394.8,65.8 394.2,65.1 C390.1,60.7 384.8,58.5 378.4,58.5 C375.3,58.5 372.3,59.3 369.6,61 C366.9,62.7 364.7,64.9 363.1,67.7 C361.5,70.5 360.7,73.5 360.7,76.8 L360.7,103.3 C360.7,106.5 361.5,109.6 363.1,112.4 C364.7,115.2 366.9,117.5 369.6,119.1 C372.3,120.8 375.2,121.6 378.4,121.6 C381.5,121.6 384.5,120.8 387.2,119.2 C389.9,117.6 392.1,115.5 393.6,112.7 C395.2,110 395.9,107 395.9,103.8 L395.9,97.7 L379.3,97.7 C378.6,97.7 377.9,97.5 377.4,97 C376.9,96.5 376.7,95.9 376.7,95.1 L376.7,86.2 C376.7,85.5 376.9,84.8 377.4,84.3 C377.9,83.8 378.5,83.6 379.3,83.6 L405.4,83.6 C406.9,83.6 408.1,84.1 409.2,85.1 C410.2,86.1 410.7,87.4 410.7,88.9 L410.7,103.3 C410.7,109.3 409.2,114.8 406.3,119.8 C403.4,124.8 399.4,128.8 394.4,131.7 C389.4,134.6 384,136.1 378.2,136.1 C372.2,136.1 366.8,134.6 361.8,131.7" id="Shape" fill="#003A40" fill-rule="nonzero"></path>
                <path d="M438,130.5 C433.5,127.9 429.9,124.2 427.3,119.7 C424.7,115.2 423.3,110.2 423.3,104.8 L423.3,91.4 C423.3,86 424.6,81 427.3,76.5 C429.9,72 433.5,68.3 438,65.7 C442.5,63.1 447.4,61.7 452.8,61.7 C458.2,61.7 463.1,63 467.6,65.7 C472.1,68.3 475.7,72 478.3,76.5 C480.9,81.1 482.3,86 482.3,91.4 L482.3,99.7 C482.3,101.2 481.8,102.4 480.8,103.5 C479.8,104.5 478.5,105 477,105 L438.3,105 L438.3,105.6 C438.3,109.7 439.7,113.1 442.6,116 C445.5,118.9 448.9,120.3 452.9,120.3 L472.5,120.3 C473.2,120.3 473.9,120.6 474.4,121.1 C474.9,121.6 475.1,122.2 475.1,123 L475.1,132 C475.1,132.7 474.9,133.4 474.4,133.9 C473.9,134.4 473.3,134.6 472.5,134.6 L452.9,134.6 C447.4,134.5 442.4,133.1 438,130.5 L438,130.5 Z M467.3,91.6 L467.3,90.5 C467.3,86.4 465.9,83 463,80.1 C460.2,77.2 456.7,75.8 452.7,75.8 C448.7,75.8 445.2,77.2 442.4,80.1 C439.6,83 438.1,86.4 438.1,90.5 L438.1,91.6 L467.3,91.6 Z" id="Shape" fill="#003A40" fill-rule="nonzero"></path>
                <path d="M508,132.2 C503.5,129.6 499.9,126.1 497.3,121.6 C494.7,117.1 493.4,112.3 493.4,107.1 L493.4,90.7 C493.4,85.5 494.7,80.6 497.3,76.2 C499.9,71.7 503.5,68.2 508,65.6 C512.5,63 517.4,61.7 522.8,61.7 C528.2,61.7 533.1,63 537.6,65.6 C542.1,68.2 545.7,71.8 548.3,76.2 C550.9,80.7 552.3,85.5 552.3,90.7 L552.3,107 C552.3,112.2 551,117.1 548.3,121.5 C545.7,126 542.1,129.5 537.6,132.1 C533.1,134.7 528.2,136 522.8,136 C517.4,136.1 512.4,134.8 508,132.2 M533,117.4 C535.8,114.5 537.3,111.1 537.3,107 L537.3,90.7 C537.3,86.6 535.9,83.2 533,80.3 C530.2,77.4 526.7,76 522.7,76 C518.7,76 515.2,77.4 512.4,80.3 C509.6,83.2 508.1,86.6 508.1,90.7 L508.1,107 C508.1,111.1 509.5,114.5 512.4,117.4 C515.2,120.3 518.7,121.7 522.7,121.7 C526.8,121.7 530.2,120.2 533,117.4" id="Shape" fill="#003A40" fill-rule="nonzero"></path>
                <g id="Group-2" fill-rule="nonzero">
                    <path d="M85.5,36.2 L85.5,18.2 L85.5,0 L74.2,19.8 C43.4,26.7 20.1,53.2 18.1,85.6 L36.2,85.6 C38.4,59.3 59.3,38.4 85.5,36.2" id="Shape" fill="#4DB05B"></path>
                    <path d="M36.2,94.6 L18.2,94.6 L0,94.6 L19.8,105.9 C26.7,136.7 53.2,160 85.6,162 L85.6,143.9 C59.3,141.7 38.4,120.8 36.2,94.6" id="Shape" fill="#003A40"></path>
                    <path d="M143.9,85.5 L162,85.5 L180.2,85.5 L160.4,74.2 C153.5,43.4 127,20.1 94.6,18.1 L94.6,36.2 C120.8,38.4 141.7,59.3 143.9,85.5" id="Shape" fill="#003A40"></path>
                    <path d="M94.5,143.9 L94.5,162 L94.5,180.2 L105.8,160.4 C136.6,153.5 159.9,127 161.9,94.6 L143.8,94.6 C141.7,120.8 120.8,141.7 94.5,143.9" id="Shape" fill="#4DB05B"></path>
                </g>
                <path d="M62.7802092,92.0124952 C53.4105239,63.1492908 83.7769829,63.5385805 90.0090925,76.2800352 C97.201118,63.5385805 125.851721,65.4810357 117.87618,92.0124952 C115.691446,99.2802374 106.323053,109.942739 89.7709999,124 C73.8022605,108.913358 64.8053303,98.2508567 62.7802092,92.0124952 Z" id="Path-2" stroke="#003A40" fill="#003A40"></path>
            </g>
        </g>
    </g>
</svg>