<?xml version="1.0" encoding="UTF-8"?>
<svg width="593px" height="189px" viewBox="0 0 593 189" version="1.1" xmlns="http://www.w3.org/2000/svg" xmlns:xlink="http://www.w3.org/1999/xlink">
    <!-- Generator: Sketch 44.1 (41455) - http://www.bohemiancoding.com/sketch -->
    <title>OSGeo_logo</title>
    <desc>Created with Sketch.</desc>
    <defs></defs>
    <g id="Page-1" stroke="none" stroke-width="1" fill="none" fill-rule="evenodd">
        <g id="OSGeo_logo" fill-rule="nonzero">
            <g id="Group" transform="translate(7.000000, 5.000000)">
                <path d="M218.3,131.7 C213.3,128.8 209.3,124.8 206.4,119.8 C203.5,114.8 202,109.3 202,103.3 L202,76.8 C202,70.8 203.5,65.3 206.4,60.3 C209.3,55.3 213.3,51.3 218.3,48.4 C223.3,45.5 228.8,44 234.7,44 C240.6,44 246.1,45.5 251.1,48.4 C256.1,51.3 260.1,55.3 263,60.3 C265.9,65.3 267.4,70.8 267.4,76.8 L267.4,103.3 C267.4,109.3 265.9,114.8 263,119.8 C260.1,124.8 256.1,128.8 251.1,131.7 C246.1,134.6 240.6,136.1 234.7,136.1 C228.8,136.1 223.3,134.6 218.3,131.7 M243.5,119.1 C246.2,117.4 248.4,115.2 250,112.4 C251.6,109.6 252.4,106.6 252.4,103.3 L252.4,76.8 C252.4,73.6 251.6,70.5 250,67.7 C248.4,64.9 246.2,62.6 243.5,61 C240.8,59.3 237.9,58.5 234.7,58.5 C231.6,58.5 228.6,59.3 225.9,61 C223.2,62.7 221,64.9 219.4,67.7 C217.8,70.5 217,73.5 217,76.8 L217,103.3 C217,106.5 217.8,109.6 219.4,112.4 C221,115.2 223.2,117.5 225.9,119.1 C228.6,120.8 231.5,121.6 234.7,121.6 C237.8,121.5 240.8,120.7 243.5,119.1" id="Shape" fill="#4DB05B"></path>
                <path d="M292.009017,133.9 C287.709017,132.5 283.709017,130.4 280.009017,127.9 C279.609017,127.7 279.309017,127.2 279.109017,126.6 C278.909017,126 279.009017,125.4 279.209017,124.9 L283.509017,117.1 C284.009017,116.1 284.809017,115.6 285.809017,115.6 C286.509017,115.6 287.109017,115.8 287.709017,116.1 C293.909017,120 299.609017,121.9 305.009017,121.9 C309.409017,121.9 312.809017,120.8 315.309017,118.7 C317.809017,116.6 319.109017,113.8 319.109017,110.4 C319.109017,108.2 318.509017,106.3 317.209017,104.7 C316.009017,103.2 314.309017,101.9 312.309017,100.8 C310.209017,99.7 307.209017,98.4 303.309017,96.8 L299.709017,95.3 C294.109017,92.9 289.409017,89.8 285.609017,86.1 C281.809017,82.4 279.809017,76.9 279.809017,69.7 C279.809017,64.6 280.909017,60.2 283.209017,56.3 C285.509017,52.4 288.609017,49.4 292.709017,47.2 C296.709017,45 301.409017,44 306.709017,44 C311.109017,44 315.409017,44.7 319.709017,46.2 C324.009017,47.7 327.909017,49.7 331.409017,52.2 C331.809017,52.4 332.109017,52.9 332.309017,53.5 C332.509017,54.1 332.409017,54.7 332.209017,55.2 L328.109017,63 C327.609017,64 326.809017,64.5 325.709017,64.5 C325.009017,64.5 324.409017,64.3 323.809017,64 C320.609017,61.9 317.509017,60.4 314.609017,59.5 C311.709017,58.6 309.109017,58.1 306.809017,58.1 C303.109017,58.1 300.209017,59.1 298.009017,61.1 C295.909017,63.1 294.809017,65.7 294.809017,68.9 C294.809017,72.1 296.009017,74.8 298.309017,76.9 C300.709017,79 304.409017,81.1 309.609017,83.3 C310.309017,83.5 313.209017,84.7 318.109017,86.7 C323.009017,88.7 326.909017,91.7 329.809017,95.6 C332.709017,99.5 334.109017,104.1 334.109017,109.4 C334.109017,114.5 332.909017,119.1 330.509017,123.1 C328.109017,127.1 324.709017,130.2 320.309017,132.5 C315.909017,134.8 310.909017,135.9 305.209017,135.9 C300.709017,136.1 296.309017,135.3 292.009017,133.9" id="Shape" fill="#4DB05B"></path>
                <path d="M361.3,131.7 C356.3,128.8 352.4,124.8 349.4,119.8 C346.5,114.8 345,109.3 345,103.3 L345,76.8 C345,70.8 346.5,65.3 349.4,60.3 C352.3,55.3 356.3,51.3 361.3,48.4 C366.3,45.5 371.7,44 377.7,44 C382.9,44 387.7,44.9 392.2,46.8 C396.6,48.7 400.4,51.4 403.6,54.9 C404.1,55.5 404.3,56.2 404.3,57 C404.3,57.8 404,58.7 403.3,59.5 L397.9,65.2 C397.2,65.9 396.6,66.2 395.9,66.2 C395.1,66.2 394.3,65.8 393.7,65.1 C389.6,60.7 384.3,58.5 377.9,58.5 C374.8,58.5 371.8,59.3 369.1,61 C366.4,62.7 364.2,64.9 362.6,67.7 C361,70.5 360.2,73.5 360.2,76.8 L360.2,103.3 C360.2,106.5 361,109.6 362.6,112.4 C364.2,115.2 366.4,117.5 369.1,119.1 C371.8,120.8 374.7,121.6 377.9,121.6 C381,121.6 384,120.8 386.7,119.2 C389.4,117.6 391.6,115.5 393.1,112.7 C394.7,110 395.4,107 395.4,103.8 L395.4,97.7 L378.8,97.7 C378.1,97.7 377.4,97.5 376.9,97 C376.4,96.5 376.2,95.9 376.2,95.1 L376.2,86.2 C376.2,85.5 376.4,84.8 376.9,84.3 C377.4,83.8 378,83.6 378.8,83.6 L404.9,83.6 C406.4,83.6 407.6,84.1 408.7,85.1 C409.7,86.1 410.2,87.4 410.2,88.9 L410.2,103.3 C410.2,109.3 408.7,114.8 405.8,119.8 C402.9,124.8 398.9,128.8 393.9,131.7 C388.9,134.6 383.5,136.1 377.7,136.1 C371.7,136.1 366.3,134.6 361.3,131.7" id="Shape" fill="#003A40"></path>
                <path d="M437.7,129.8 C433.2,127.2 429.6,123.5 427,119 C424.4,114.5 423,109.5 423,104.1 L423,90.7 C423,85.3 424.3,80.3 427,75.8 C429.6,71.3 433.2,67.6 437.7,65 C442.2,62.4 447.1,61 452.5,61 C457.9,61 462.8,62.3 467.3,65 C471.8,67.6 475.4,71.3 478,75.8 C480.6,80.4 482,85.3 482,90.7 L482,99 C482,100.5 481.5,101.7 480.5,102.8 C479.5,103.8 478.2,104.3 476.7,104.3 L438,104.3 L438,104.9 C438,109 439.4,112.4 442.3,115.3 C445.2,118.2 448.6,119.6 452.6,119.6 L472.2,119.6 C472.9,119.6 473.6,119.9 474.1,120.4 C474.6,120.9 474.8,121.5 474.8,122.3 L474.8,131.3 C474.8,132 474.6,132.7 474.1,133.2 C473.6,133.7 473,133.9 472.2,133.9 L452.6,133.9 C447.1,133.8 442.1,132.4 437.7,129.8 L437.7,129.8 Z M467,90.9 L467,89.8 C467,85.7 465.6,82.3 462.7,79.4 C459.9,76.5 456.4,75.1 452.4,75.1 C448.4,75.1 444.9,76.5 442.1,79.4 C439.3,82.3 437.8,85.7 437.8,89.8 L437.8,90.9 L467,90.9 Z" id="Shape" fill="#003A40"></path>
                <path d="M507.6,131.5 C503.1,128.9 499.5,125.4 496.9,120.9 C494.3,116.4 493,111.6 493,106.4 L493,90 C493,84.8 494.3,79.9 496.9,75.5 C499.5,71 503.1,67.5 507.6,64.9 C512.1,62.3 517,61 522.4,61 C527.8,61 532.7,62.3 537.2,64.9 C541.7,67.5 545.3,71.1 547.9,75.5 C550.5,80 551.9,84.8 551.9,90 L551.9,106.3 C551.9,111.5 550.6,116.4 547.9,120.8 C545.3,125.3 541.7,128.8 537.2,131.4 C532.7,134 527.8,135.3 522.4,135.3 C517,135.4 512,134.1 507.6,131.5 M532.6,116.7 C535.4,113.8 536.9,110.4 536.9,106.3 L536.9,90 C536.9,85.9 535.5,82.5 532.6,79.6 C529.8,76.7 526.3,75.3 522.3,75.3 C518.3,75.3 514.8,76.7 512,79.6 C509.2,82.5 507.7,85.9 507.7,90 L507.7,106.3 C507.7,110.4 509.1,113.8 512,116.7 C514.8,119.6 518.3,121 522.3,121 C526.4,121 529.8,119.5 532.6,116.7" id="Shape" fill="#003A40"></path>
                <path d="M85.4,36.2 L85.4,18.2 L85.4,0 L74.1,19.8 C43.3,26.7 20,53.2 18,85.6 L36.1,85.6 C38.3,59.3 59.2,38.4 85.4,36.2" id="Shape" fill="#4DB05B"></path>
                <path d="M36.2,94 L18.2,94 L0,94 L19.8,105.3 C26.7,136.1 53.2,159.4 85.6,161.4 L85.6,143.3 C59.3,141.1 38.4,120.2 36.2,94" id="Shape" fill="#003A40"></path>
                <path d="M143.3,85.4 L161.4,85.4 L179.6,85.4 L159.8,74.1 C152.9,43.3 126.4,20 94,18 L94,36.1 C120.2,38.3 141.1,59.2 143.3,85.4" id="Shape" fill="#003A40"></path>
                <path d="M94,143.3 L94,161.4 L94,179.6 L105.3,159.8 C136.1,152.9 159.4,126.4 161.4,94 L143.3,94 C141.1,120.2 120.2,141.1 94,143.3" id="Shape" fill="#4DB05B"></path>
                <path d="M95.4,84.3 L62,62 L84.3,95.4 L117.7,117.7 L95.4,84.3 Z M89.8,93.7 C87.6,93.7 85.9,91.9 85.9,89.8 C85.9,87.6 87.7,85.9 89.8,85.9 C91.9,85.9 93.7,87.7 93.7,89.8 C93.7,91.9 92,93.7 89.8,93.7 L89.8,93.7 Z" id="Shape" fill="#003A40"></path>
                <polygon id="Shape" fill="#4DB05B" points="84.7 95.2 77.2 84 43 89.7 77.2 95.3 62.4 117.5 84.5 102.7 90.2 136.9 95.9 102.7"></polygon>
                <polygon id="Shape" fill="#4DB05B" points="102.7 83.6 117.5 61.4 95.3 76.2 89.6 42 84 76.2 95.2 83.7 102.7 94.9 136.9 89.2"></polygon>
            </g>
        </g>
    </g>
</svg>